<svg width="0" height="0" class="hidden">
  <symbol xmlns="http://www.w3.org/2000/svg" viewBox="0 0 512 512" id="focus">
    <path d="M177.592 0H20.105C9 0 0 9 0 20.105v156.817c0 11.104 9 20.105 20.105 20.105 11.104 0 20.105-9 20.105-20.105V40.209h137.382c11.104 0 20.105-9 20.105-20.105C197.696 9 188.696 0 177.592 0zm-.671 471.12H40.209V334.408c0-11.104-9-20.105-20.105-20.105C9 314.304 0 323.304 0 334.408v156.817c0 11.104 9 20.105 20.105 20.105h156.817c11.104 0 20.105-9 20.105-20.105s-9.001-20.105-20.106-20.105zm314.304-156.816c-11.104 0-20.105 9-20.105 20.105v137.382H334.408c-11.104 0-20.105 9-20.105 20.105s9 20.105 20.105 20.105h156.817c11.104 0 20.105-8.994 20.105-20.105V334.408c0-11.104-9-20.104-20.105-20.104zM491.895 0H334.408c-11.104 0-20.105 9-20.105 20.105 0 11.104 9 20.105 20.105 20.105H471.79v137.382c0 11.104 9 20.105 20.105 20.105 11.111 0 20.105-9 20.105-20.105V20.105C512 9 503 0 491.895 0z"></path>
  </symbol>
</svg>