<svg width="0" height="0" class="hidden">
   <!--#linkedin-->
   <symbol xmlns="http://www.w3.org/2000/svg" viewBox="0 0 24 24" id="linkedin">
    <path d="M23.994 24v-.001H24v-8.802c0-4.306-.927-7.623-5.961-7.623-2.42 0-4.044 1.328-4.707 2.587h-.07V7.976H8.489v16.023h4.97v-7.934c0-2.089.396-4.109 2.983-4.109 2.549 0 2.587 2.384 2.587 4.243V24zM.396 7.977h4.976V24H.396zM2.882 0C1.291 0 0 1.291 0 2.882s1.291 2.909 2.882 2.909 2.882-1.318 2.882-2.909A2.884 2.884 0 002.882 0z"></path>
  </symbol>
  <!--#github-->
  <symbol xmlns="http://www.w3.org/2000/svg" viewBox="0 0 512 512" id="github">
    <path d="M255.968 5.329C114.624 5.329 0 120.401 0 262.353c0 113.536 73.344 209.856 175.104 243.872 12.8 2.368 17.472-5.568 17.472-12.384 0-6.112-.224-22.272-.352-43.712-71.2 15.52-86.24-34.464-86.24-34.464-11.616-29.696-28.416-37.6-28.416-37.6-23.264-15.936 1.728-15.616 1.728-15.616 25.696 1.824 39.2 26.496 39.2 26.496 22.848 39.264 59.936 27.936 74.528 21.344 2.304-16.608 8.928-27.936 16.256-34.368-56.832-6.496-116.608-28.544-116.608-127.008 0-28.064 9.984-51.008 26.368-68.992-2.656-6.496-11.424-32.64 2.496-68 0 0 21.504-6.912 70.4 26.336 20.416-5.696 42.304-8.544 64.096-8.64 21.728.128 43.648 2.944 64.096 8.672 48.864-33.248 70.336-26.336 70.336-26.336 13.952 35.392 5.184 61.504 2.56 68 16.416 17.984 26.304 40.928 26.304 68.992 0 98.72-59.84 120.448-116.864 126.816 9.184 7.936 17.376 23.616 17.376 47.584 0 34.368-.32 62.08-.32 70.496 0 6.88 4.608 14.88 17.6 12.352C438.72 472.145 512 375.857 512 262.353 512 120.401 397.376 5.329 255.968 5.329z"></path>
  </symbol>
  <!--#vk-->
  <symbol xmlns="http://www.w3.org/2000/svg" viewBox="0 0 24 24" id="vk">
    <path d="M19.915 13.028c-.388-.49-.277-.708 0-1.146.005-.005 3.208-4.431 3.538-5.932l.002-.001c.164-.547 0-.949-.793-.949h-2.624c-.668 0-.976.345-1.141.731 0 0-1.336 3.198-3.226 5.271-.61.599-.892.791-1.225.791-.164 0-.419-.192-.419-.739V5.949c0-.656-.187-.949-.74-.949H9.161c-.419 0-.668.306-.668.591 0 .622.945.765 1.043 2.515v3.797c0 .832-.151.985-.486.985-.892 0-3.057-3.211-4.34-6.886-.259-.713-.512-1.001-1.185-1.001H.9c-.749 0-.9.345-.9.731 0 .682.892 4.073 4.148 8.553C6.318 17.343 9.374 19 12.154 19c1.671 0 1.875-.368 1.875-1.001 0-2.922-.151-3.198.686-3.198.388 0 1.056.192 2.616 1.667C19.114 18.217 19.407 19 20.405 19h2.624c.748 0 1.127-.368.909-1.094-.499-1.527-3.871-4.668-4.023-4.878z"></path>
  </symbol>
  <!--#contact-->
  <symbol xmlns="http://www.w3.org/2000/svg" viewBox="0 0 511.882 511.882" id="contact">
    <path d="M389.898 430.449l-86.29-57.527a8.887 8.887 0 00-11.886 1.929l-25.125 32.302c-8.143 10.612-22.839 13.641-34.514 7.113l-4.645-2.551c-16.759-9.143-37.623-20.517-79.04-61.934-41.417-41.417-52.8-62.281-61.934-79.049l-2.56-4.645c-6.527-11.672-3.498-26.366 7.113-34.505l32.293-25.134a8.878 8.878 0 001.929-11.886l-57.518-86.299a8.842 8.842 0 00-11.886-2.679l-36.105 21.65a34.738 34.738 0 00-15.899 20.489c-11.858 43.182-1.883 118.793 112.96 233.646s190.437 124.846 233.655 112.978a34.74 34.74 0 0020.489-15.909l21.641-36.105a8.83 8.83 0 00-2.678-11.884z"></path>
    <path d="M510.425 15.156a4.973 4.973 0 00-3.572-1.456H123.767a4.973 4.973 0 00-5.028 5.028V151.83l21.723 32.585c7.835 11.838 5.26 27.708-5.915 36.462l-32.265 25.134a8.723 8.723 0 00-2.359 11.173l2.633 4.8a230.534 230.534 0 0030.51 44.471h373.787a4.993 4.993 0 005.029-4.919V18.728a4.97 4.97 0 00-1.457-3.572zM250.661 181.434v-.046l-93.659 100.343a9.144 9.144 0 01-13.376-12.47l93.659-100.297a9.144 9.144 0 0113.376 12.47zm64.649-7.204a30.305 30.305 0 01-18.286-6.034L144.211 52.319a9.16 9.16 0 0111.1-14.574l152.75 115.877a12.336 12.336 0 0014.501 0L475.356 37.745a9.147 9.147 0 0111.054 14.574L333.596 168.196a30.303 30.303 0 01-18.286 6.034zm171.813 107.95a9.142 9.142 0 01-12.928-.448l-93.65-100.343a9.143 9.143 0 0113.394-12.425l93.632 100.297a9.143 9.143 0 01-.448 12.919z"></path>
  </symbol>
</svg>